<?xml version="1.0" encoding="UTF-8" standalone="no"?>
<!DOCTYPE svg PUBLIC "-//W3C//DTD SVG 1.1//EN"
 "http://www.w3.org/Graphics/SVG/1.1/DTD/svg11.dtd">
<!-- Generated by graphviz version 2.43.0 (0)
 -->
<!-- Title: %3 Pages: 1 -->
<svg width="480pt" height="611pt"
 viewBox="0.00 0.00 479.99 611.00" xmlns="http://www.w3.org/2000/svg" xmlns:xlink="http://www.w3.org/1999/xlink">
<g id="graph0" class="graph" transform="scale(1 1) rotate(0) translate(4 607)">
<title>%3</title>
<polygon fill="white" stroke="transparent" points="-4,4 -4,-607 475.99,-607 475.99,4 -4,4"/>
<!-- Uninitialized -->
<g id="node1" class="node">
<title>Uninitialized</title>
<ellipse fill="none" stroke="black" cx="392.6" cy="-585" rx="70.39" ry="18"/>
<text text-anchor="middle" x="392.6" y="-581.3" font-family="Times,serif" font-size="14.00">Uninitialized</text>
</g>
<!-- Allocated -->
<g id="node2" class="node">
<title>Allocated</title>
<ellipse fill="none" stroke="black" cx="392.6" cy="-512" rx="53.89" ry="18"/>
<text text-anchor="middle" x="392.6" y="-508.3" font-family="Times,serif" font-size="14.00">Allocated</text>
</g>
<!-- Uninitialized&#45;&gt;Allocated -->
<g id="edge1" class="edge">
<title>Uninitialized&#45;&gt;Allocated</title>
<path fill="none" stroke="black" d="M392.6,-566.81C392.6,-558.79 392.6,-549.05 392.6,-540.07"/>
<polygon fill="black" stroke="black" points="396.1,-540.03 392.6,-530.03 389.1,-540.03 396.1,-540.03"/>
</g>
<!-- Initialized -->
<g id="node3" class="node">
<title>Initialized</title>
<ellipse fill="none" stroke="black" cx="350.6" cy="-439" rx="57.39" ry="18"/>
<text text-anchor="middle" x="350.6" y="-435.3" font-family="Times,serif" font-size="14.00">Initialized</text>
</g>
<!-- Allocated&#45;&gt;Initialized -->
<g id="edge2" class="edge">
<title>Allocated&#45;&gt;Initialized</title>
<path fill="none" stroke="black" d="M382.64,-494.17C377.64,-485.72 371.47,-475.29 365.89,-465.85"/>
<polygon fill="black" stroke="black" points="368.87,-464.02 360.77,-457.2 362.85,-467.59 368.87,-464.02"/>
</g>
<!-- Error -->
<g id="node4" class="node">
<title>Error</title>
<ellipse fill="none" stroke="black" cx="435.6" cy="-192" rx="36.29" ry="18"/>
<text text-anchor="middle" x="435.6" y="-188.3" font-family="Times,serif" font-size="14.00">Error</text>
</g>
<!-- Allocated&#45;&gt;Error -->
<g id="edge3" class="edge">
<title>Allocated&#45;&gt;Error</title>
<path fill="none" stroke="black" d="M409.34,-494.87C421.42,-481.45 435.6,-461.18 435.6,-440 435.6,-440 435.6,-440 435.6,-278 435.6,-258.75 435.6,-237.05 435.6,-220.4"/>
<polygon fill="black" stroke="black" points="439.1,-220.26 435.6,-210.26 432.1,-220.26 439.1,-220.26"/>
</g>
<!-- Initialized&#45;&gt;Error -->
<g id="edge5" class="edge">
<title>Initialized&#45;&gt;Error</title>
<path fill="none" stroke="black" d="M355.99,-421.01C367.46,-385.15 395.37,-299.13 421.6,-228 422.62,-225.24 423.71,-222.36 424.82,-219.5"/>
<polygon fill="black" stroke="black" points="428.15,-220.6 428.57,-210.02 421.64,-218.03 428.15,-220.6"/>
<text text-anchor="middle" x="401.6" y="-318.8" font-family="Times,serif" font-size="14.00">kill</text>
</g>
<!-- Runnable -->
<g id="node5" class="node">
<title>Runnable</title>
<ellipse fill="none" stroke="black" cx="232.6" cy="-366" rx="54.69" ry="18"/>
<text text-anchor="middle" x="232.6" y="-362.3" font-family="Times,serif" font-size="14.00">Runnable</text>
</g>
<!-- Initialized&#45;&gt;Runnable -->
<g id="edge4" class="edge">
<title>Initialized&#45;&gt;Runnable</title>
<path fill="none" stroke="black" d="M325.28,-422.77C308.17,-412.47 285.38,-398.76 266.68,-387.51"/>
<polygon fill="black" stroke="black" points="268.24,-384.36 257.87,-382.21 264.63,-390.36 268.24,-384.36"/>
</g>
<!-- Running_Sys -->
<g id="node6" class="node">
<title>Running_Sys</title>
<ellipse fill="none" stroke="black" cx="232.6" cy="-279" rx="70.69" ry="18"/>
<text text-anchor="middle" x="232.6" y="-275.3" font-family="Times,serif" font-size="14.00">Running_Sys</text>
</g>
<!-- Runnable&#45;&gt;Running_Sys -->
<g id="edge6" class="edge">
<title>Runnable&#45;&gt;Running_Sys</title>
<path fill="none" stroke="black" d="M232.6,-347.8C232.6,-336.16 232.6,-320.55 232.6,-307.24"/>
<polygon fill="black" stroke="black" points="236.1,-307.18 232.6,-297.18 229.1,-307.18 236.1,-307.18"/>
</g>
<!-- Running_Sys&#45;&gt;Error -->
<g id="edge12" class="edge">
<title>Running_Sys&#45;&gt;Error</title>
<path fill="none" stroke="black" d="M278.15,-265.13C297.66,-259.14 320.53,-251.46 340.6,-243 362.39,-233.81 385.92,-221.45 404.1,-211.32"/>
<polygon fill="black" stroke="black" points="406.1,-214.21 413.09,-206.25 402.66,-208.11 406.1,-214.21"/>
</g>
<!-- Running_User -->
<g id="node7" class="node">
<title>Running_User</title>
<ellipse fill="none" stroke="black" cx="304.6" cy="-192" rx="76.89" ry="18"/>
<text text-anchor="middle" x="304.6" y="-188.3" font-family="Times,serif" font-size="14.00">Running_User</text>
</g>
<!-- Running_Sys&#45;&gt;Running_User -->
<g id="edge14" class="edge">
<title>Running_Sys&#45;&gt;Running_User</title>
<path fill="none" stroke="black" d="M260.51,-262.41C268.39,-257.03 276.48,-250.45 282.6,-243 288.24,-236.12 292.71,-227.57 296.09,-219.49"/>
<polygon fill="black" stroke="black" points="299.41,-220.61 299.7,-210.02 292.87,-218.12 299.41,-220.61"/>
<text text-anchor="middle" x="313.6" y="-231.8" font-family="Times,serif" font-size="14.00">return</text>
</g>
<!-- Asleep -->
<g id="node10" class="node">
<title>Asleep</title>
<ellipse fill="none" stroke="black" cx="41.6" cy="-192" rx="41.69" ry="18"/>
<text text-anchor="middle" x="41.6" y="-188.3" font-family="Times,serif" font-size="14.00">Asleep</text>
</g>
<!-- Running_Sys&#45;&gt;Asleep -->
<g id="edge11" class="edge">
<title>Running_Sys&#45;&gt;Asleep</title>
<path fill="none" stroke="black" d="M195.57,-263.48C180.32,-257.35 162.52,-250.03 146.6,-243 123.31,-232.73 97.5,-220.45 77.3,-210.63"/>
<polygon fill="black" stroke="black" points="78.68,-207.41 68.16,-206.17 75.61,-213.7 78.68,-207.41"/>
<text text-anchor="middle" x="165.6" y="-231.8" font-family="Times,serif" font-size="14.00">sleep</text>
</g>
<!-- Returned -->
<g id="node11" class="node">
<title>Returned</title>
<ellipse fill="none" stroke="black" cx="155.6" cy="-192" rx="53.89" ry="18"/>
<text text-anchor="middle" x="155.6" y="-188.3" font-family="Times,serif" font-size="14.00">Returned</text>
</g>
<!-- Running_Sys&#45;&gt;Returned -->
<g id="edge13" class="edge">
<title>Running_Sys&#45;&gt;Returned</title>
<path fill="none" stroke="black" d="M217.38,-261.21C205.92,-248.55 190.04,-231.03 177.25,-216.91"/>
<polygon fill="black" stroke="black" points="179.82,-214.53 170.52,-209.47 174.64,-219.23 179.82,-214.53"/>
</g>
<!-- Running_User&#45;&gt;Running_Sys -->
<g id="edge8" class="edge">
<title>Running_User&#45;&gt;Running_Sys</title>
<path fill="none" stroke="black" d="M258.8,-206.54C248.87,-211.65 239.57,-218.61 233.6,-228 229.32,-234.72 227.98,-243.05 228.02,-250.97"/>
<polygon fill="black" stroke="black" points="224.54,-251.26 228.74,-260.98 231.52,-250.75 224.54,-251.26"/>
<text text-anchor="middle" x="258.1" y="-231.8" font-family="Times,serif" font-size="14.00">syscall</text>
</g>
<!-- Interrupted -->
<g id="node8" class="node">
<title>Interrupted</title>
<ellipse fill="none" stroke="black" cx="348.6" cy="-105" rx="64.99" ry="18"/>
<text text-anchor="middle" x="348.6" y="-101.3" font-family="Times,serif" font-size="14.00">Interrupted</text>
</g>
<!-- Running_User&#45;&gt;Interrupted -->
<g id="edge7" class="edge">
<title>Running_User&#45;&gt;Interrupted</title>
<path fill="none" stroke="black" d="M313.5,-173.8C319.74,-161.74 328.2,-145.4 335.25,-131.79"/>
<polygon fill="black" stroke="black" points="338.37,-133.38 339.86,-122.89 332.15,-130.16 338.37,-133.38"/>
<text text-anchor="middle" x="361.6" y="-144.8" font-family="Times,serif" font-size="14.00">interrupt</text>
</g>
<!-- Interrupted&#45;&gt;Running_User -->
<g id="edge10" class="edge">
<title>Interrupted&#45;&gt;Running_User</title>
<path fill="none" stroke="black" d="M333.3,-122.56C328.75,-128.12 324.05,-134.55 320.6,-141 316.76,-148.15 313.66,-156.37 311.25,-164.05"/>
<polygon fill="black" stroke="black" points="307.87,-163.13 308.46,-173.71 314.59,-165.07 307.87,-163.13"/>
</g>
<!-- Preempted -->
<g id="node9" class="node">
<title>Preempted</title>
<ellipse fill="none" stroke="black" cx="271.6" cy="-18" rx="61.99" ry="18"/>
<text text-anchor="middle" x="271.6" y="-14.3" font-family="Times,serif" font-size="14.00">Preempted</text>
</g>
<!-- Interrupted&#45;&gt;Preempted -->
<g id="edge9" class="edge">
<title>Interrupted&#45;&gt;Preempted</title>
<path fill="none" stroke="black" d="M333.38,-87.21C321.92,-74.55 306.04,-57.03 293.25,-42.91"/>
<polygon fill="black" stroke="black" points="295.82,-40.53 286.52,-35.47 290.64,-45.23 295.82,-40.53"/>
<text text-anchor="middle" x="345.1" y="-57.8" font-family="Times,serif" font-size="14.00">preempt</text>
</g>
<!-- Preempted&#45;&gt;Running_User -->
<g id="edge15" class="edge">
<title>Preempted&#45;&gt;Running_User</title>
<path fill="none" stroke="black" d="M270.09,-36.18C268.73,-57.01 267.83,-93.05 274.6,-123 277.85,-137.4 284.19,-152.51 290.2,-164.82"/>
<polygon fill="black" stroke="black" points="287.23,-166.71 294.89,-174.03 293.47,-163.53 287.23,-166.71"/>
</g>
<!-- Asleep&#45;&gt;Runnable -->
<g id="edge17" class="edge">
<title>Asleep&#45;&gt;Runnable</title>
<path fill="none" stroke="black" d="M47.14,-210.13C55.15,-232.56 71.88,-271.97 97.6,-297 122.16,-320.9 156.8,-338.11 184.84,-349.24"/>
<polygon fill="black" stroke="black" points="183.86,-352.62 194.45,-352.92 186.36,-346.08 183.86,-352.62"/>
<text text-anchor="middle" x="125.1" y="-275.3" font-family="Times,serif" font-size="14.00">wakeup</text>
</g>
<!-- Complete -->
<g id="node12" class="node">
<title>Complete</title>
<ellipse fill="none" stroke="black" cx="151.6" cy="-105" rx="55.49" ry="18"/>
<text text-anchor="middle" x="151.6" y="-101.3" font-family="Times,serif" font-size="14.00">Complete</text>
</g>
<!-- Returned&#45;&gt;Complete -->
<g id="edge16" class="edge">
<title>Returned&#45;&gt;Complete</title>
<path fill="none" stroke="black" d="M153.91,-173.93C153.4,-168.23 152.91,-161.85 152.6,-156 152.21,-148.66 151.97,-140.71 151.82,-133.35"/>
<polygon fill="black" stroke="black" points="155.32,-133.08 151.66,-123.13 148.32,-133.19 155.32,-133.08"/>
<text text-anchor="middle" x="197.1" y="-144.8" font-family="Times,serif" font-size="14.00">exit_success</text>
</g>
</g>
</svg>
